<?xml version="1.0" standalone="no"?><!-- Generator: Gravit.io --><svg xmlns="http://www.w3.org/2000/svg" xmlns:xlink="http://www.w3.org/1999/xlink" style="isolation:isolate" viewBox="0 0 20 20" width="20" height="20"><defs><clipPath id="_clipPath_pVld55WxHH2C6yl5o8bKtE0WNPNiV1iZ"><rect width="20" height="20"/></clipPath></defs><g clip-path="url(#_clipPath_pVld55WxHH2C6yl5o8bKtE0WNPNiV1iZ)"><path d=" M 19.902 10.098 L 17.569 7.764 C 17.439 7.634 17.228 7.634 17.098 7.764 L 10.667 14.195 L 7.805 11.333 L 8.5 11.333 C 9.006 11.965 9.771 12.332 10.58 12.333 C 11.604 12.334 12.536 11.739 12.967 10.81 C 13.016 10.707 13.009 10.586 12.948 10.489 C 12.887 10.392 12.781 10.334 12.667 10.333 L 11 10.333 L 11 9 L 12.667 9 C 12.781 9 12.887 8.941 12.948 8.844 C 13.009 8.748 13.016 8.627 12.967 8.523 C 12.536 7.594 11.604 7 10.58 7 C 9.771 7.001 9.006 7.369 8.5 8 L 7.138 8 L 11.236 3.902 C 11.275 3.863 11.303 3.815 11.319 3.762 L 12.319 0.429 C 12.355 0.312 12.322 0.184 12.236 0.098 C 12.149 0.011 12.022 -0.021 11.904 0.014 L 8.571 1.014 C 8.518 1.03 8.47 1.059 8.431 1.098 L 1.471 8.058 C 0.68 8.51 0.146 9.305 0.026 10.208 C -0.095 11.111 0.213 12.018 0.857 12.662 L 7.338 19.143 C 7.868 19.675 8.583 19.98 9.333 19.996 L 9.333 20 L 11 20 C 11.111 20 11.215 19.944 11.277 19.852 C 11.368 19.727 11.513 19.653 11.667 19.653 C 11.821 19.653 11.965 19.727 12.056 19.852 C 12.118 19.944 12.222 20 12.333 20 L 13.333 20 C 13.517 20 13.667 19.851 13.667 19.667 L 13.667 19 L 16.959 19 L 18.252 19.323 C 18.306 19.337 18.361 19.337 18.414 19.323 L 19.748 18.99 C 19.896 18.953 20 18.82 20 18.667 L 20 17.333 C 20 17.181 19.896 17.047 19.748 17.01 L 18.414 16.677 C 18.361 16.663 18.305 16.663 18.252 16.677 L 16.959 17 L 13.471 17 L 19.902 10.569 C 20.032 10.439 20.032 10.228 19.902 10.098 Z  M 13.667 17.667 L 17 17.667 C 17.027 17.667 17.055 17.663 17.081 17.657 L 18.333 17.344 L 19.333 17.594 L 19.333 18.406 L 18.333 18.656 L 17.081 18.343 C 17.055 18.337 17.027 18.333 17 18.333 L 13.667 18.333 L 13.667 17.667 Z  M 8.667 8.667 C 8.776 8.667 8.878 8.613 8.94 8.524 C 9.314 7.988 9.926 7.668 10.58 7.667 C 11.144 7.666 11.681 7.909 12.053 8.333 L 11 8.333 C 10.632 8.333 10.333 8.632 10.333 9 L 10.333 10.333 C 10.333 10.702 10.632 11 11 11 L 12.053 11 C 11.681 11.425 11.144 11.668 10.58 11.667 C 9.926 11.666 9.314 11.346 8.94 10.809 C 8.878 10.72 8.776 10.667 8.667 10.667 L 7.138 10.667 L 6.471 10 L 8.667 10 L 8.667 9.333 L 5.805 9.333 L 5.138 8.667 L 8.667 8.667 Z  M 6.195 8 L 4.805 8 L 9.833 2.971 L 10.529 3.667 L 6.195 8 Z  M 11.503 0.83 L 11.303 1.497 L 10.836 1.03 L 11.503 0.83 Z  M 10.11 1.248 L 11.085 2.223 L 10.841 3.036 L 9.297 1.492 L 10.11 1.248 Z  M 8.667 1.805 L 9.362 2.5 L 3.993 7.869 C 3.653 7.735 3.291 7.667 2.926 7.667 C 2.883 7.667 2.841 7.671 2.799 7.673 L 8.667 1.805 Z  M 9.407 19.333 C 8.808 19.335 8.232 19.097 7.81 18.672 L 1.328 12.19 C 0.446 11.308 0.446 9.877 1.328 8.995 C 2.211 8.113 3.641 8.113 4.524 8.995 L 11.005 15.476 C 11.651 16.123 11.845 17.094 11.495 17.939 C 11.145 18.783 10.321 19.333 9.407 19.333 Z  M 13 18.667 L 13 19.333 L 12.493 19.333 C 12.279 19.106 11.98 18.976 11.667 18.977 C 11.651 18.977 11.637 18.981 11.622 18.981 C 11.742 18.841 11.85 18.69 11.942 18.529 L 13 17.471 L 13 18.667 Z  M 12.327 17.2 C 12.327 17.157 12.333 17.115 12.333 17.072 C 12.335 16.296 12.027 15.551 11.476 15.003 L 11.138 14.667 L 12.333 13.471 L 13.098 14.236 L 13.569 13.764 L 12.805 13 L 13.333 12.471 L 13.764 12.902 L 14.236 12.431 L 13.805 12 L 14.333 11.471 L 15.098 12.236 L 15.569 11.764 L 14.805 11 L 15.333 10.471 L 15.764 10.902 L 16.236 10.431 L 15.805 10 L 16.333 9.471 L 17.098 10.236 L 17.569 9.764 L 16.805 9 L 17.333 8.471 L 19.195 10.333 L 12.327 17.2 Z " fill="rgb(85,93,102)"/></g></svg>