<?xml version="1.0" standalone="no"?><!-- Generator: Gravit.io --><svg xmlns="http://www.w3.org/2000/svg" xmlns:xlink="http://www.w3.org/1999/xlink" style="isolation:isolate" viewBox="0 0 76 76" width="76" height="76"><defs><clipPath id="_clipPath_a6dEfT2FthWnL1JsuGWJOKvYfD1H2K3x"><rect width="76" height="76"/></clipPath></defs><g clip-path="url(#_clipPath_a6dEfT2FthWnL1JsuGWJOKvYfD1H2K3x)"><g/><g><circle vector-effect="non-scaling-stroke" cx="38.32292683047863" cy="37.572925789915146" r="37.32292683047862" fill="rgb(0,115,170)"/><g><g><path d=" M 60.808 37.795 L 55.51 32.496 C 55.214 32.201 54.735 32.201 54.44 32.496 L 39.837 47.099 L 33.338 40.601 L 34.917 40.601 C 36.066 42.034 37.803 42.869 39.64 42.871 C 41.966 42.872 44.081 41.522 45.059 39.412 C 45.171 39.178 45.155 38.903 45.017 38.684 C 44.878 38.464 44.637 38.331 44.378 38.33 L 40.594 38.33 L 40.594 35.302 L 44.378 35.302 C 44.637 35.302 44.878 35.168 45.017 34.949 C 45.155 34.729 45.171 34.454 45.059 34.22 C 44.081 32.11 41.966 30.76 39.64 30.761 C 37.803 30.763 36.066 31.598 34.917 33.032 L 31.824 33.032 L 41.129 23.727 C 41.217 23.638 41.283 23.529 41.319 23.409 L 43.589 15.84 C 43.669 15.574 43.596 15.285 43.4 15.088 C 43.203 14.891 42.914 14.818 42.647 14.898 L 35.078 17.169 C 34.958 17.205 34.849 17.27 34.76 17.359 L 18.955 33.163 C 17.161 34.191 15.948 35.996 15.674 38.046 C 15.401 40.095 16.099 42.155 17.562 43.617 L 32.279 58.334 C 33.482 59.541 35.105 60.235 36.809 60.272 L 36.809 60.28 L 40.594 60.28 C 40.847 60.28 41.083 60.154 41.223 59.943 C 41.429 59.66 41.758 59.493 42.107 59.493 C 42.457 59.493 42.786 59.66 42.991 59.943 C 43.132 60.154 43.368 60.28 43.621 60.28 L 45.892 60.28 C 46.31 60.28 46.649 59.941 46.649 59.523 L 46.649 58.009 L 54.125 58.009 L 57.061 58.743 C 57.182 58.774 57.309 58.774 57.429 58.743 L 60.457 57.986 C 60.794 57.902 61.03 57.599 61.03 57.252 L 61.03 54.225 C 61.03 53.878 60.794 53.575 60.457 53.491 L 57.429 52.734 C 57.309 52.703 57.182 52.703 57.061 52.734 L 54.125 53.468 L 46.205 53.468 L 60.808 38.865 C 61.104 38.569 61.104 38.09 60.808 37.795 Z  M 46.649 54.982 L 54.218 54.982 C 54.28 54.982 54.342 54.974 54.402 54.959 L 57.245 54.248 L 59.516 54.816 L 59.516 56.661 L 57.245 57.229 L 54.402 56.518 C 54.342 56.503 54.28 56.495 54.218 56.495 L 46.649 56.495 L 46.649 54.982 Z  M 35.295 34.545 C 35.543 34.545 35.774 34.424 35.916 34.221 C 36.765 33.004 38.155 32.277 39.64 32.275 C 40.921 32.272 42.141 32.824 42.984 33.788 L 40.594 33.788 C 39.758 33.788 39.08 34.466 39.08 35.302 L 39.08 38.33 C 39.08 39.166 39.758 39.844 40.594 39.844 L 42.984 39.844 C 42.141 40.808 40.921 41.36 39.64 41.357 C 38.155 41.355 36.765 40.628 35.916 39.411 C 35.774 39.208 35.543 39.087 35.295 39.087 L 31.824 39.087 L 30.31 37.573 L 35.295 37.573 L 35.295 36.059 L 28.797 36.059 L 27.283 34.545 L 35.295 34.545 Z  M 29.684 33.032 L 26.526 33.032 L 37.944 21.613 L 39.523 23.192 L 29.684 33.032 Z  M 41.735 16.751 L 41.281 18.265 L 40.221 17.206 L 41.735 16.751 Z  M 38.573 17.701 L 40.787 19.914 L 40.233 21.761 L 36.727 18.255 L 38.573 17.701 Z  M 35.295 18.964 L 36.874 20.543 L 24.683 32.734 C 23.911 32.431 23.09 32.275 22.261 32.275 C 22.163 32.275 22.068 32.285 21.971 32.289 L 35.295 18.964 Z  M 36.977 58.766 C 35.616 58.77 34.309 58.229 33.349 57.264 L 18.632 42.547 C 16.629 40.543 16.629 37.295 18.632 35.291 C 20.636 33.287 23.884 33.287 25.888 35.291 L 40.605 50.008 C 42.072 51.475 42.511 53.682 41.717 55.599 C 40.923 57.516 39.052 58.766 36.977 58.766 Z  M 45.135 57.252 L 45.135 58.766 L 43.984 58.766 C 43.497 58.249 42.818 57.956 42.107 57.956 C 42.073 57.956 42.039 57.965 42.005 57.967 C 42.279 57.648 42.523 57.305 42.733 56.94 L 45.135 54.538 L 45.135 57.252 Z  M 43.607 53.922 C 43.607 53.825 43.621 53.73 43.621 53.632 C 43.626 51.869 42.925 50.177 41.675 48.934 L 40.907 48.17 L 43.621 45.455 L 45.357 47.191 L 46.427 46.121 L 44.691 44.385 L 45.892 43.185 L 46.871 44.163 L 47.941 43.093 L 46.962 42.114 L 48.163 40.914 L 49.898 42.649 L 50.968 41.579 L 49.233 39.844 L 50.433 38.643 L 51.412 39.622 L 52.482 38.552 L 51.504 37.573 L 52.704 36.373 L 54.44 38.108 L 55.51 37.038 L 53.774 35.302 L 54.975 34.102 L 59.203 38.33 L 43.607 53.922 Z " fill="rgb(255,255,255)"/><path d=" M 20.405 37.931 L 19.07 37.215 C 18.79 37.739 18.644 38.324 18.644 38.919 L 20.157 38.919 C 20.156 38.574 20.241 38.234 20.405 37.931 L 20.405 37.931 Z " fill="rgb(255,255,255)"/><path d=" M 20.557 40.153 L 19.335 41.048 C 19.447 41.2 19.57 41.343 19.703 41.476 L 23.407 45.181 L 24.477 44.11 L 20.774 40.407 C 20.695 40.328 20.623 40.243 20.557 40.153 Z " fill="rgb(255,255,255)"/></g></g></g></g></svg>